<svg xmlns="http://www.w3.org/2000/svg" xmlns:xlink="http://www.w3.org/1999/xlink" width="40" height="40" viewBox="0 0 37 29">
    <defs>
        <filter id="a" width="190%" height="235%" x="-45%" y="-67.5%" filterUnits="objectBoundingBox">
            <feOffset dx="2" dy="2" in="SourceAlpha" result="shadowOffsetOuter1"/>
            <feGaussianBlur in="shadowOffsetOuter1" result="shadowBlurOuter1" stdDeviation="2.5"/>
            <feColorMatrix in="shadowBlurOuter1" result="shadowMatrixOuter1" values="0 0 0 0 0 0 0 0 0 0 0 0 0 0 0 0 0 0 0.2 0"/>
            <feMerge>
                <feMergeNode in="shadowMatrixOuter1"/>
                <feMergeNode in="SourceGraphic"/>
            </feMerge>
        </filter>
        <path id="b" d="M.034.028h11.452v7.696H.034z"/>
        <path id="d" d="M.057 9.388c0 5.167 3.969 9.355 8.864 9.355 4.896 0 8.864-4.188 8.864-9.355 0-5.166-3.968-9.354-8.864-9.354C4.026.034.057 4.222.057 9.388"/>
        <path id="f" d="M.057 9.388c0 5.167 3.969 9.355 8.864 9.355 4.896 0 8.864-4.188 8.864-9.355 0-5.166-3.968-9.354-8.864-9.354C4.026.034.057 4.222.057 9.388z"/>
        <path id="h" d="M.057 9.388c0 5.167 3.969 9.355 8.864 9.355 4.896 0 8.864-4.188 8.864-9.355 0-5.166-3.968-9.354-8.864-9.354C4.026.034.057 4.222.057 9.388"/>
        <path id="j" d="M.057 9.388c0 5.167 3.969 9.355 8.864 9.355 4.896 0 8.864-4.188 8.864-9.355 0-5.166-3.968-9.354-8.864-9.354C4.026.034.057 4.222.057 9.388"/>
        <path id="l" d="M.057 9.388c0 5.167 3.969 9.355 8.864 9.355 4.896 0 8.864-4.188 8.864-9.355 0-5.166-3.968-9.354-8.864-9.354C4.026.034.057 4.222.057 9.388"/>
        <path id="n" d="M.057 9.388c0 5.167 3.969 9.355 8.864 9.355 4.896 0 8.864-4.188 8.864-9.355 0-5.166-3.968-9.354-8.864-9.354C4.026.034.057 4.222.057 9.388"/>
        <path id="p" d="M.057 9.388c0 5.167 3.969 9.355 8.864 9.355 4.896 0 8.864-4.188 8.864-9.355 0-5.166-3.968-9.354-8.864-9.354C4.026.034.057 4.222.057 9.388z"/>
        <path id="r" d="M.057 9.388c0 5.167 3.969 9.355 8.864 9.355 4.896 0 8.864-4.188 8.864-9.355 0-5.166-3.968-9.354-8.864-9.354C4.026.034.057 4.222.057 9.388"/>
        <path id="t" d="M.057 9.388c0 5.167 3.969 9.355 8.864 9.355 4.896 0 8.864-4.188 8.864-9.355 0-5.166-3.968-9.354-8.864-9.354C4.026.034.057 4.222.057 9.388"/>
        <path id="v" d="M.057 9.388c0 5.167 3.969 9.355 8.864 9.355 4.896 0 8.864-4.188 8.864-9.355 0-5.166-3.968-9.354-8.864-9.354C4.026.034.057 4.222.057 9.388"/>
        <path id="x" d="M.057 9.388c0 5.167 3.969 9.355 8.864 9.355 4.896 0 8.864-4.188 8.864-9.355 0-5.166-3.968-9.354-8.864-9.354C4.026.034.057 4.222.057 9.388"/>
        <path id="z" d="M.057 9.388c0 5.167 3.969 9.355 8.864 9.355 4.896 0 8.864-4.188 8.864-9.355 0-5.166-3.968-9.354-8.864-9.354C4.026.034.057 4.222.057 9.388z"/>
        <path id="B" d="M.024.016H14.99v6.55H.024z"/>
    </defs>
    <g fill="none" fill-rule="evenodd" filter="url(#a)" transform="translate(2 3)">
        <path fill="#FFB900" d="M13.778 18.743c4.836 0 8.756-4.188 8.756-9.355 0-5.166-3.92-9.354-8.756-9.354-4.835 0-8.755 4.188-8.755 9.354 0 5.167 3.92 9.355 8.755 9.355"/>
        <path fill="#562385" d="M14.745 9.341l-.383-.002a.05.05 0 0 0-.048.05c0 .028.022.051.048.051l.388-.004c.131 0 .251.018.218.079l-1.004 2.018c-.125.24-.389.179-.43-.013l-.498-2.705 1.749-1.427c.173-.157.508-.413.678-.41l.381-.002c.232-.002.315.113.26.26l-.067.137c-.044.077-.18.086-.298.086h-.22a.05.05 0 0 0-.048.052c0 .029.021.051.048.051h.217c.094 0 .212.003.169.077l-.811 1.627c-.038.063-.207.075-.35.075m3.025 1.004c-.817 1.045-1.281 1.402-2.112 1.402-.283 0-.43-.067-.35-.211l.985-2.086h.375c.42 0 .362.373.248.876-.02.07.03.074.08.013l.937-1.732c.046-.11-.073-.13-.13-.048-.47.67-.964.62-1.172.62h-.17l1.053-2.113h.424c.534.034.783.512.629 1.663h.222l.774-1.605c.062-.135-.07-.26-.215-.26l-5.252.002c-.304 0-.317.246-.026.246.237 0 .224.356.012.529l-2.23 1.862.451 2.2c.033.166.135.245.309.245h4.342a.34.34 0 0 0 .31-.155l.787-1.43c.108-.205-.144-.192-.28-.018"/>
        <path fill="#562385" d="M8.163 9.746H6.782L8.529 7.32l-.366 2.426zm-.32 1.507c-.042.249-.28.413-.58.497l-.308.08.254-.48c.067-.131-.08-.208-.24-.013-1.072 1.316-1.415 1.945-3.07 1.95l-.445.001c-.135 0-.283-.055-.191-.19l.585-1.149h2.225c.304 0 .226-.24.047-.247-.118-.004-.246-.075-.337-.226-.026-.042-.081-.209.005-.337l.852-1.192h1.417l-.214 1.306zm3.297.45a.24.24 0 0 1-.22-.172c-.037-.118-.034-.326.011-.419l2.026-3.78c.033-.07.115-.216.216-.216.179 0 .256-.248-.047-.248h-1.623c-.303 0-.306.243-.015.243.118 0 .165.123.132.197l-.448.855c-.057.094-.18.101-.311.101l-.387-.001c-.027 0-.048.023-.048.051 0 .028.021.052.048.052h.383c.104 0 .186.033.127.16l-1.496 2.866c-.107.158-.322.193-.31-.109l.532-4.198c.021-.132-.012-.22-.145-.22l-.801.001c-.097 0-.155.049-.202.114l-.286.38c-.038.039-.118.039-.207.039l-.674-.002a.05.05 0 0 0-.048.051c0 .029.021.052.048.052h.55c.097 0 .211.024.17.072l-.771 1.021c-.024.028-.098.036-.144.036h-.218a.05.05 0 0 0-.049.05c0 .028.022.051.049.051l.182.001c.056 0 .056.03.034.056l-.725.959c-.038.037-.11.044-.18.044h-.641c-.026 0-.048.022-.048.05 0 .029.022.052.048.052h.55c.083 0 .147.015.103.075l-1.03 1.36c-.194.26-1.127.392-1.309.392l3.486-6.864c.033-.079.163-.199.296-.199h.74c.35 0 .34-.244.036-.244h-3.72c-.304 0-.316.244.033.244h.689c.195 0 .258.124.208.226l-.099.189c-.032.061-.079.086-.267.086H4.15a.05.05 0 0 0-.048.05.05.05 0 0 0 .048.051h1.214c.066 0 .165.018.103.143l-.17.333c-.03.05-.104.074-.19.074h-.551a.05.05 0 0 0-.05.05c0 .029.022.051.05.051l.549.001c.078 0 .08.054.035.13l-.392.768c-.034.065-.098.074-.222.074l-.22-.001a.05.05 0 0 0-.049.051c0 .028.022.051.05.051h.216c.083 0 .104.05.067.132l-.322.63c-.048.09-.116.125-.33.125l-1.217-.001a.05.05 0 0 0-.05.05.05.05 0 0 0 .05.052h1.214c.137.003.188.066.134.17L3.44 9.383c-.037.055-.14.064-.314.064l-1.218-.002c-.027 0-.048.023-.048.052 0 .028.021.05.048.05h1.215c.145 0 .234.007.19.088l-.362.717c-.067.109-.253.109-.326.109l-.386-.001a.05.05 0 0 0-.049.051c0 .028.022.051.049.051h.382c.136 0 .207.025.172.101l-.484.957c-.044.086-.233.09-.378.09l-1.882-.002c-.027 0-.049.023-.049.052 0 .027.022.05.049.05h1.879c.125 0 .282.017.223.122l-.308.61c-.029.051-.134.055-.286.055h-.386a.05.05 0 0 0-.049.05c0 .029.022.051.05.051h.382c.093 0 .208.012.168.087l-.193.39c-.063.097-.125.183-.274.183H.31c-.349 0-.336.244-.033.244l5.545.004c.163 0 .168-.023.244-.149l.823-1.509h4.203c.304.001.226-.24.048-.246z"/>
        <g transform="translate(17.703 6.744)">
            <mask id="c" fill="#fff">
                <use xlink:href="#b"/>
            </mask>
            <path fill="#562385" d="M4.172 2.19c-.153.132-.393.284-.44.235a1.881 1.881 0 0 0-.375-.266L4.263.416c.038-.061.08-.094.18-.094.353 0 .468.402.302.903-.116.351-.304.732-.573.965m7.31 1.562c-.022-.12-.063-.047-.138.104-.023.046-.096.047-.169.047h-.222a.05.05 0 0 0-.049.053c0 .027.022.05.05.05h.218c.083 0 .084.058.045.146a3.98 3.98 0 0 1-.52.848.261.261 0 0 1-.183.081l-.224.002c-.027 0-.048.022-.048.05 0 .029.021.052.048.052h.219c.11 0-.002.07-.02.097a5.035 5.035 0 0 1-.94 1.032c-.033.028-.194.018-.307.017h-.22c-.026 0-.048.024-.048.053 0 .028.022.051.048.051h.218c.166 0 .04.1.016.122-.605.53-1.505.7-1.917.646-1.336-.176-1.612-1.244-1.711-1.671-.02-.09-.085-.273-.106-.385-.041-.224.562-.287.729-.17.252.178.841.36 1.305.362.429.002 1.306-.326 1.56-1.1.26-.794-.393-1.674-.682-1.977-.368-.388-.716-1.005-.57-1.457.111-.342.296-.497.692-.497.511 0 .883.346.883.837 0 .045-.025.096-.059.096l-.18.001c-.027 0-.05.024-.05.052a.05.05 0 0 0 .05.051h.17c.047 0 .077.038.064.1-.032.164-.043.28-.077.444-.02.095.113.161.159.092L10.32.47c.058-.115-.072-.145-.166-.11-.221.08-.579.136-.705.04-.301-.227-.576-.373-.994-.373-.716 0-1.216.185-1.537.804-.025.049-.095.048-.155.048h-.137a.049.049 0 0 0-.049.05c0 .029.022.052.049.052L6.743.98c.05 0 .083.015.058.077a2.475 2.475 0 0 0-.06.174c-.082.269-.055.645.072.98.008.022-.02.032-.068.032h-.219a.05.05 0 0 0-.049.052c0 .028.022.05.05.05h.218c.099.001.122.012.163.073.114.167.229.29.374.486.046.06-.15.077-.253.077h-.866c-.028 0-.048.023-.048.05 0 .029.02.052.048.052l.877-.001c.14 0 .383-.002.41.03.211.258.468.655.512.989.012.097-.022.137-.135.137H7.71a.05.05 0 0 0-.049.05c0 .03.022.052.049.052h.104c.089 0 .138.015.117.086-.114.382-.285.659-.979.655-.727-.005-.875-.756-.663-1.539.042-.155-.002-.223-.068-.1l-.507.838a.17.17 0 0 1-.138.067h-.072c-.027 0-.048.023-.048.051 0 .028.022.05.048.05.064 0 .09.037.064.075l-.185.304c-.306-.737-.82-1.644-1.093-1.974l.005-.016c.676-.044 1.67-.71 1.834-1.304C6.412.501 5.46.12 4.94.12H2.66c-.304 0-.326.242-.035.242.157 0 .295.145.225.291l-.505.959c-.042.078-.199.074-.402.074H1.72c-.026 0-.048.023-.048.052 0 .028.022.05.048.05h.218c.146 0 .306.01.251.12l-.597 1.134c-.029.053-.106.058-.31.058h-.22c-.027 0-.049.024-.049.052 0 .027.022.051.05.051h.214c.16 0 .22.022.174.11L.653 4.832c-.095.109-.208.13-.403.13-.291 0-.288.242.015.242H2.22c.304 0 .227-.247.047-.247-.105 0-.216-.203-.146-.325l.998-1.989h.101c.444 0 .551.766.634 1.602.006.06-.102.063-.323.063l-.554.002a.05.05 0 0 0-.05.051.05.05 0 0 0 .05.051h.548c.146 0 .35.002.354.05.038.368.067.69.134.985.021.092-.134.077-.3.077l-.707.001a.05.05 0 0 0-.05.051.05.05 0 0 0 .05.052h.706c.221 0 .336 0 .349.048.303 1.174 1.607 2.097 2.874 2.046C8.022 7.68 8.94 7.056 9.41 6.66c.627-.529 1.545-1.635 1.92-2.44.068-.147.178-.336.153-.467" mask="url(#c)"/>
        </g>
        <path fill="#562385" d="M10.87 5.316c-.183.25-.426.314-.699.314h-.077l.48-1.002a.152.152 0 0 1 .138-.082c.06 0 .052-.127-.027-.127h-.758c-.064 0-.086.127-.026.127.064 0 .076.075.045.139l-.43.893c-.03.048-.077.06-.13.075-.064.017-.108.138-.035.138h1.21c.093 0 .115-.036.14-.072l.243-.396c.035-.048-.039-.055-.074-.007M14.514 4.455c-.037.021-.123.032-.161-.001a.728.728 0 0 0-.385-.15c-.285 0-.492.06-.616.343-.106.242.002.444.254.566.109.054.253.123.198.26-.04.102-.152.112-.253.112-.135-.002-.338-.109-.37-.31-.01-.065-.082-.05-.103-.015l-.172.361c-.027.048.044.101.072.07.058-.065.184-.082.246-.038.087.06.308.166.438.165.29-.002.48-.08.639-.342.144-.238.056-.474-.208-.605-.14-.068-.26-.19-.197-.325.041-.088.165-.069.226-.058.118.021.27.138.287.24.007.044.06.053.084.014l.09-.223c.02-.043-.046-.077-.069-.064M22.908 4.814l.106-.204c.046-.09-.03-.192-.15-.192H21.45c-.101 0-.072.111-.03.111.09 0 .117.117.062.215l-.425.822c-.063.08-.103.113-.194.113-.073 0-.1.112.003.112h1.431c.058 0 .084-.022.105-.053l.195-.272c.047-.065-.055-.065-.087-.032-.246.26-.51.253-.703.253h-.167l.196-.461h.042c.126 0 .27-.002.31.1.01.023.07.042.096 0l.167-.353c.027-.052-.048-.061-.069-.024-.065.124-.356.091-.431.091h-.043l.245-.507h.272a.4.4 0 0 1 .362.263c.012.033.102.06.12.018M15.925 5.074l.47-.405.003.405h-.473zm3.37-.656h-.503c-.102 0-.072.111-.03.111.107 0 .204.133.146.256l-.209.4-.459-.707c-.03-.043-.102-.064-.165-.064h-.494c-.102 0-.078.11-.037.11.105 0 .078.084.052.142l-.394.799c-.026.064-.133.073-.166-.009l-.305-1.045c-.012-.042-.191-.04-.236 0l-.765.663h-.396c-.078 0-.11.035-.11.078 0 .044.03.085.113.085l.207-.001-.207.18c-.115.09-.232.214-.312.214h-.047c-.075 0-.118.013-.118.076s.032.085.103.085h.617c.116 0 .093-.16.035-.16-.064 0-.17-.085-.071-.205l.188-.19h.37c.22 0 .375.269.243.352l-.1.06c-.049.025-.07.143 0 .143h1.203c.09 0 .072-.124.03-.124-.122 0-.065-.187-.04-.237l.316-.63.445.906c.028.057.055.085.107.085h.17c.054 0 .073-.033.097-.076l.506-.963c.082-.172.144-.221.247-.221.041 0 .07-.113-.032-.113zM12.278 5.215c-.135.282-.36.45-.503.374-.143-.075-.15-.365-.015-.647.134-.282.359-.45.502-.375.143.076.15.366.016.648m-.12-.858c-.424 0-.86.22-.948.688-.075.407.192.83.666.83.45 0 .866-.31.95-.76.083-.451-.236-.758-.668-.758M20.727 5.04h-.544c-.102 0-.072.112-.031.112.043 0 .083.024.083.096 0 .232-.093.32-.283.32-.207 0-.282-.264-.142-.588a.682.682 0 0 1 .604-.402c.172 0 .317.04.338.208.005.042.065.042.085.003l.13-.244c.014-.026-.009-.057-.048-.06-.033-.002-.108.043-.156.005a1.005 1.005 0 0 0-.526-.168c-.292 0-.7.07-.976.573-.249.456.114.937.45.938.188 0 .405-.145.53-.2l.139.1c.02.025.064.058.105.058h.051c.049 0 .067-.069.086-.113l.213-.544c.028-.054.012-.094-.108-.094M28.184 4.455c-.036.021-.123.032-.16-.001a.728.728 0 0 0-.386-.15c-.285 0-.492.06-.616.343-.106.242.003.444.254.566.11.054.255.123.199.26-.04.102-.153.112-.254.112-.134-.002-.338-.109-.37-.31-.01-.065-.082-.05-.102-.015l-.173.361c-.027.048.044.101.073.07.058-.065.184-.082.247-.038.085.06.305.166.438.165.288-.002.479-.08.637-.342.145-.238.056-.474-.208-.605-.14-.068-.259-.19-.196-.325.04-.088.165-.069.227-.058.117.021.268.138.285.24.008.044.06.053.084.014l.09-.223c.02-.043-.046-.077-.069-.064M24.399 5.316c-.183.25-.426.314-.7.314h-.076l.481-1.002a.151.151 0 0 1 .136-.082c.06 0 .053-.127-.026-.127h-.758c-.064 0-.087.127-.027.127.065 0 .077.075.046.139l-.43.893c-.03.048-.077.06-.13.075-.064.017-.108.138-.035.138h1.21c.093 0 .115-.036.14-.072l.243-.396c.035-.048-.039-.055-.074-.007M26.224 4.533a.4.4 0 0 1 .362.263c.01.033.101.06.12.018l.105-.204c.046-.09-.03-.192-.15-.192h-1.412c-.102 0-.072.111-.03.111.09 0 .118.117.062.215l-.424.822c-.064.08-.105.113-.195.113-.073 0-.099.112.003.112h1.431c.058 0 .084-.022.105-.053l.194-.272c.048-.065-.055-.065-.086-.032-.247.26-.512.253-.703.253h-.167l.196-.461h.042c.125 0 .27-.002.308.1.01.023.073.042.098 0l.167-.353c.027-.052-.048-.061-.069-.024-.066.124-.356.091-.432.091h-.042l.245-.507h.272z"/>
        <g>
            <g transform="translate(5)">
                <mask id="e" fill="#fff">
                    <use xlink:href="#d"/>
                </mask>
                <path fill="#562385" d="M9.9 9.341l-.388-.002a.05.05 0 0 0-.048.05c0 .028.022.051.048.051l.393-.004c.133 0 .254.018.22.079L9.11 11.533c-.126.24-.394.179-.436-.013L8.17 8.815l1.77-1.427c.175-.157.514-.413.687-.41l.386-.002c.234-.002.318.113.263.26l-.069.137c-.044.077-.182.086-.3.086h-.223a.05.05 0 0 0-.05.052c0 .029.022.051.05.051h.22c.094 0 .213.003.17.077l-.821 1.627c-.038.063-.209.075-.354.075m3.063 1.004c-.828 1.045-1.298 1.402-2.14 1.402-.285 0-.434-.067-.354-.211l.997-2.086h.38c.426 0 .367.373.251.876-.02.07.031.074.082.013l.948-1.732c.046-.11-.073-.13-.132-.048-.475.67-.975.62-1.186.62h-.172l1.066-2.113h.43c.54.034.792.512.636 1.663h.225l.783-1.605c.063-.135-.07-.26-.218-.26l-5.316.002c-.308 0-.322.246-.026.246.239 0 .226.356.011.529L6.971 9.503l.456 2.2c.033.166.136.245.312.245h4.396c.181 0 .256-.077.314-.155l.796-1.43c.11-.205-.145-.192-.283-.018" mask="url(#e)"/>
            </g>
            <g transform="translate(5)">
                <mask id="g" fill="#fff">
                    <use xlink:href="#f"/>
                </mask>
                <path fill="#562385" d="M3.236 9.746H1.838l1.77-2.426-.372 2.426zm-.324 1.507c-.042.249-.283.413-.586.497l-.312.08.256-.48c.068-.131-.08-.208-.242-.013-1.086 1.316-1.433 1.945-3.109 1.95l-.45.001c-.137 0-.286-.055-.194-.19l.593-1.149H1.12c.308 0 .229-.24.048-.247-.119-.004-.25-.075-.341-.226-.027-.042-.083-.209.005-.337l.863-1.192h1.434l-.217 1.306zm3.338.45a.243.243 0 0 1-.222-.172c-.038-.118-.035-.326.01-.419l2.052-3.78c.033-.07.116-.216.218-.216.181 0 .26-.248-.047-.248H6.618c-.307 0-.31.243-.016.243.12 0 .168.123.134.197l-.454.855c-.057.094-.182.101-.315.101l-.391-.001a.05.05 0 0 0-.049.051c0 .028.022.052.049.052h.388c.105 0 .188.033.128.16l-1.514 2.866c-.109.158-.326.193-.314-.109l.538-4.198c.022-.132-.011-.22-.146-.22l-.812.001c-.097 0-.157.049-.203.114l-.29.38c-.039.039-.12.039-.21.039l-.682-.002a.05.05 0 0 0-.049.051.05.05 0 0 0 .049.052h.556c.1 0 .215.024.173.072l-.781 1.021c-.024.028-.1.036-.146.036h-.22a.05.05 0 0 0-.05.05c0 .028.022.051.05.051l.183.001c.058 0 .058.03.035.056l-.734.959c-.038.037-.111.044-.183.044H.694a.05.05 0 0 0-.048.05c0 .029.022.052.048.052h.556c.085 0 .15.015.106.075l-1.044 1.36c-.196.26-1.14.392-1.325.392l3.53-6.864c.033-.079.164-.199.3-.199h.749c.353 0 .343-.244.036-.244H-.165c-.307 0-.32.244.034.244h.698c.197 0 .261.124.21.226l-.1.189c-.032.061-.08.086-.27.086H-.827a.05.05 0 0 0-.05.05.05.05 0 0 0 .05.051h1.23c.066 0 .166.018.103.143l-.173.333c-.03.05-.104.074-.191.074h-.559a.05.05 0 0 0-.05.05.05.05 0 0 0 .05.051l.556.001c.08 0 .082.054.036.13l-.397.768c-.034.065-.099.074-.225.074l-.222-.001a.05.05 0 0 0-.05.051c0 .028.022.051.05.051h.22c.083 0 .105.05.067.132l-.325.63c-.05.09-.118.125-.335.125l-1.232-.001a.05.05 0 0 0-.05.05.05.05 0 0 0 .05.052h1.229c.138.003.19.066.136.17l-.637 1.242c-.038.055-.141.064-.319.064l-1.232-.002c-.027 0-.049.023-.049.052 0 .028.022.05.049.05h1.23c.147 0 .236.007.192.088l-.366.717c-.068.109-.257.109-.33.109l-.391-.001a.05.05 0 0 0-.05.051c0 .028.023.051.05.051h.387c.137 0 .21.025.174.101l-.49.957c-.044.086-.236.09-.383.09l-1.906-.002a.051.051 0 0 0-.049.052c0 .027.023.05.05.05h1.902c.126 0 .285.017.226.122l-.312.61c-.03.051-.136.055-.29.055h-.39a.05.05 0 0 0-.05.05c0 .029.022.051.05.051h.388c.094 0 .21.012.17.087l-.196.39c-.063.097-.126.183-.277.183h-.957c-.353 0-.34.244-.034.244l5.615.004c.164 0 .17-.023.247-.149l.832-1.509h4.256c.307.001.228-.24.048-.246z" mask="url(#g)"/>
            </g>
            <g transform="translate(5)">
                <mask id="i" fill="#fff">
                    <use xlink:href="#h"/>
                </mask>
                <path fill="#562385" d="M17.117 8.935c-.154.13-.397.283-.444.234a1.905 1.905 0 0 0-.38-.266l.917-1.743c.038-.06.081-.094.183-.094.356 0 .473.402.305.903-.117.351-.308.732-.58.966m7.401 1.561c-.023-.12-.065-.047-.14.104-.024.046-.098.047-.171.047l-.225.001a.05.05 0 0 0-.05.052c0 .027.022.05.05.05h.221c.084 0 .086.058.046.146a3.972 3.972 0 0 1-.526.848.266.266 0 0 1-.186.081l-.226.002a.05.05 0 0 0-.05.051c0 .028.023.051.05.051h.221c.112 0-.001.07-.02.097a5.059 5.059 0 0 1-.952 1.032c-.034.028-.196.018-.31.017h-.223c-.027 0-.05.024-.05.053 0 .028.023.051.05.051h.22c.168 0 .041.1.017.122-.613.53-1.524.7-1.94.646-1.354-.176-1.633-1.244-1.734-1.67-.02-.09-.085-.273-.107-.386-.041-.223.57-.287.738-.17.255.178.852.36 1.321.362.434.002 1.323-.326 1.58-1.1.263-.793-.398-1.674-.69-1.977-.373-.388-.726-1.004-.577-1.457.112-.342.299-.496.7-.496.518 0 .894.346.894.837 0 .044-.025.096-.06.096h-.182a.051.051 0 0 0-.05.052.05.05 0 0 0 .05.051h.171c.049 0 .079.038.066.1-.033.164-.044.28-.078.444-.021.095.114.161.16.092l.815-1.51c.059-.115-.073-.145-.169-.11-.223.08-.585.136-.713.04-.305-.227-.583-.372-1.007-.372-.724 0-1.23.184-1.555.803-.026.049-.097.048-.157.048h-.14a.05.05 0 0 0-.048.051c0 .028.022.05.049.05h.118c.05 0 .084.015.059.076a2.454 2.454 0 0 0-.061.175c-.082.268-.056.644.074.979.008.022-.02.033-.07.033h-.22a.05.05 0 0 0-.05.051c0 .028.021.051.05.051h.22c.1 0 .124.012.166.072.114.167.231.291.378.486.047.06-.151.078-.256.077h-.877a.05.05 0 0 0-.049.05c0 .029.021.052.049.052l.888-.001c.143 0 .388-.002.415.03.214.258.474.655.519.989.012.097-.023.137-.137.137H20.7a.05.05 0 0 0-.049.051c0 .028.022.05.05.05h.104c.09 0 .14.016.119.087-.115.382-.288.659-.99.655-.737-.004-.887-.755-.672-1.539.042-.155-.002-.223-.07-.1l-.512.838a.173.173 0 0 1-.14.068l-.073-.001a.05.05 0 0 0-.048.051c0 .028.022.051.048.051.065 0 .09.036.065.074l-.187.304c-.31-.736-.83-1.644-1.107-1.974l.005-.016c.684-.044 1.692-.709 1.857-1.304.286-1.032-.678-1.413-1.204-1.413h-2.31c-.306 0-.33.242-.035.242.16 0 .299.145.229.292l-.512.958c-.042.079-.201.074-.407.074h-.225a.05.05 0 0 0-.048.052c0 .028.022.05.048.05h.221c.147 0 .31.01.254.12l-.604 1.134c-.03.053-.108.058-.314.058h-.223c-.027 0-.05.024-.05.052 0 .028.023.051.05.051h.218c.163 0 .223.023.176.11l-.808 1.52c-.096.108-.21.129-.408.129-.295 0-.292.242.015.242h1.979c.307 0 .229-.247.047-.247-.106 0-.219-.203-.147-.325l1.01-1.989h.102c.45 0 .558.767.642 1.603.006.06-.103.062-.328.062l-.56.002a.05.05 0 0 0-.05.051.05.05 0 0 0 .05.051h.554c.148 0 .354.002.36.05.038.368.067.691.135.985.021.092-.136.078-.305.078h-.715a.05.05 0 0 0-.05.051.05.05 0 0 0 .05.052h.715c.224 0 .34 0 .353.048.307 1.174 1.627 2.097 2.91 2.046 1.101-.043 2.031-.666 2.507-1.063.634-.528 1.564-1.635 1.943-2.44.069-.146.18-.336.155-.467" mask="url(#i)"/>
            </g>
            <g transform="translate(5)">
                <mask id="k" fill="#fff">
                    <use xlink:href="#j"/>
                </mask>
                <path fill="#562385" d="M5.977 5.316c-.186.25-.432.314-.708.314h-.078l.487-1.002a.154.154 0 0 1 .138-.082c.061 0 .053-.127-.026-.127h-.767c-.066 0-.088.127-.028.127.066 0 .078.075.046.139l-.435.893c-.03.048-.078.06-.131.075-.065.017-.11.138-.036.138h1.224c.095 0 .117-.036.142-.072l.247-.396c.035-.048-.04-.055-.075-.007" mask="url(#k)"/>
            </g>
            <g transform="translate(5)">
                <mask id="m" fill="#fff">
                    <use xlink:href="#l"/>
                </mask>
                <path fill="#562385" d="M9.666 4.455c-.037.021-.125.032-.163-.001a.743.743 0 0 0-.39-.15c-.289 0-.498.06-.624.343-.107.242.003.444.258.566.11.054.256.123.2.26-.04.102-.154.112-.256.112-.136-.002-.342-.109-.374-.31-.01-.065-.084-.05-.105-.015l-.174.361c-.028.048.045.101.073.07.059-.065.187-.082.25-.038.087.06.31.166.443.165.293-.002.486-.08.646-.342.146-.238.057-.474-.21-.605-.142-.068-.263-.19-.2-.325.042-.088.167-.069.23-.058.119.021.272.138.29.24.007.044.06.053.084.014l.092-.223c.02-.043-.047-.077-.07-.064" mask="url(#m)"/>
            </g>
            <g transform="translate(5)">
                <mask id="o" fill="#fff">
                    <use xlink:href="#n"/>
                </mask>
                <path fill="#562385" d="M18.164 4.814l.107-.204c.046-.09-.03-.192-.152-.192h-1.43c-.103 0-.073.111-.031.111.092 0 .119.117.063.215l-.43.822c-.064.08-.105.113-.197.113-.073 0-.1.112.004.112h1.449c.058 0 .085-.022.105-.053l.198-.272c.047-.065-.056-.065-.088-.032-.25.26-.517.253-.712.253h-.168l.198-.461h.042c.127 0 .274-.002.313.1.01.023.073.042.098 0l.17-.353c.027-.052-.05-.061-.07-.024-.066.124-.36.091-.437.091h-.043l.247-.507h.276c.17 0 .318.126.367.263.011.033.103.06.12.018" mask="url(#o)"/>
            </g>
            <g transform="translate(5)">
                <mask id="q" fill="#fff">
                    <use xlink:href="#p"/>
                </mask>
                <path fill="#562385" d="M11.094 5.074l.477-.405.002.405h-.479zm3.411-.656h-.508c-.104 0-.073.111-.031.111.109 0 .208.133.148.256l-.211.4-.465-.707c-.03-.043-.104-.064-.167-.064h-.5c-.103 0-.08.11-.038.11.107 0 .08.084.053.142l-.4.799c-.025.064-.133.073-.167-.009l-.308-1.045c-.013-.042-.194-.04-.24 0l-.774.663h-.401c-.08 0-.11.035-.11.078 0 .044.03.085.113.085l.21-.001-.21.18c-.116.09-.235.214-.315.214h-.048c-.076 0-.12.013-.12.076s.033.085.105.085h.624c.118 0 .094-.16.036-.16-.065 0-.172-.085-.073-.205l.19-.19h.376c.223 0 .379.269.246.352l-.103.06c-.048.025-.069.143 0 .143h1.22c.09 0 .072-.124.03-.124-.124 0-.066-.187-.041-.237l.32-.63.45.906c.029.057.056.085.109.085h.172c.054 0 .073-.033.098-.076l.512-.963c.083-.172.146-.221.25-.221.042 0 .072-.113-.032-.113z" mask="url(#q)"/>
            </g>
            <g transform="translate(5)">
                <mask id="s" fill="#fff">
                    <use xlink:href="#r"/>
                </mask>
                <path fill="#562385" d="M7.403 5.215c-.137.282-.364.45-.51.374-.144-.075-.151-.365-.015-.647.135-.282.363-.45.508-.375.145.076.152.366.017.648m-.122-.858c-.43 0-.87.22-.96.688-.076.407.195.83.674.83.456 0 .877-.31.961-.76.085-.451-.238-.758-.675-.758" mask="url(#s)"/>
            </g>
            <g transform="translate(5)">
                <mask id="u" fill="#fff">
                    <use xlink:href="#t"/>
                </mask>
                <path fill="#562385" d="M15.955 5.04h-.55c-.103 0-.073.112-.031.112.043 0 .084.024.084.096 0 .232-.094.32-.286.32-.21 0-.286-.264-.144-.588a.69.69 0 0 1 .611-.402c.174 0 .32.04.342.208.005.042.066.042.086.003l.131-.244c.015-.026-.008-.057-.048-.06-.033-.002-.109.043-.158.005a1.026 1.026 0 0 0-.532-.168c-.296 0-.71.07-.988.573-.252.456.115.937.456.938.19 0 .41-.145.535-.2l.141.1c.02.025.065.058.107.058h.052c.049 0 .068-.069.087-.113l.215-.544c.028-.054.013-.094-.11-.094" mask="url(#u)"/>
            </g>
            <g transform="translate(5)">
                <mask id="w" fill="#fff">
                    <use xlink:href="#v"/>
                </mask>
                <path fill="#562385" d="M23.505 4.455c-.036.021-.125.032-.162-.001a.743.743 0 0 0-.39-.15c-.29 0-.499.06-.624.343-.108.242.003.444.257.566.111.054.258.123.201.26-.04.102-.155.112-.256.112-.136-.002-.342-.109-.374-.31-.01-.065-.084-.05-.105-.015l-.174.361c-.028.048.044.101.073.07.059-.065.187-.082.25-.038.087.06.31.166.443.165.292-.002.486-.08.645-.342.147-.238.057-.474-.21-.605-.141-.068-.262-.19-.199-.325.04-.088.167-.069.23-.058.118.021.272.138.29.24.007.044.06.053.083.014l.092-.223c.02-.043-.046-.077-.07-.064" mask="url(#w)"/>
            </g>
            <g transform="translate(5)">
                <mask id="y" fill="#fff">
                    <use xlink:href="#x"/>
                </mask>
                <path fill="#562385" d="M19.673 5.316c-.185.25-.431.314-.708.314h-.077l.487-1.002a.153.153 0 0 1 .138-.082c.06 0 .053-.127-.027-.127h-.767c-.065 0-.088.127-.027.127.065 0 .077.075.045.139l-.435.893c-.03.048-.077.06-.131.075-.065.017-.11.138-.036.138h1.225c.094 0 .117-.036.142-.072l.246-.396c.036-.048-.039-.055-.075-.007" mask="url(#y)"/>
            </g>
            <g transform="translate(5)">
                <mask id="A" fill="#fff">
                    <use xlink:href="#z"/>
                </mask>
                <path fill="#562385" d="M21.52 4.533c.171 0 .32.126.367.263.011.033.103.06.122.018l.107-.204c.045-.09-.03-.192-.153-.192h-1.43c-.103 0-.072.111-.03.111.092 0 .12.117.063.215l-.43.822c-.063.08-.105.113-.197.113-.073 0-.1.112.004.112h1.449c.058 0 .085-.022.105-.053l.197-.272c.049-.065-.056-.065-.087-.032-.25.26-.518.253-.712.253h-.169l.198-.461h.043c.127 0 .274-.002.312.1.01.023.073.042.099 0l.169-.353c.028-.052-.049-.061-.07-.024-.067.124-.36.091-.437.091h-.042l.247-.507h.276z" mask="url(#A)"/>
            </g>
        </g>
        <g>
            <path fill="#000" d="M15.941 1.237c-.652-.05-1.185-.07-1.652-.017.136-.365.405-.707.614-.856.445.019.904.089 1.268.166 1.164.246 2.974 1.008 3.754 2.13-1.04-.744-2.767-1.33-3.984-1.423m-1.954.026c-.392.027-1.104.192-1.358.27A40.639 40.639 0 0 1 12.327.6a6.114 6.114 0 0 1 2.208-.236c-.18.148-.482.733-.548.899m-3.288 1.04c-.08-.146-.463-.52-.67-.595.483-.384 1.603-.933 2.028-1.03.073.131.27.69.335.926-.376.087-1.374.471-1.693.698m10.493 1.276c-.106-.132-.253-.411-1.308-1.398C18.333.73 16.277.067 14.347.067c-1.423 0-2.67.343-4.049 1.158C8.541 2.263 7.813 3.457 7.633 3.7c-.133.178-.152.282-.066.336.061.038.18-.1.29-.258.523-.74 1.21-1.476 1.934-1.908.225.035.54.372.662.55-.462.27-1.23.898-1.52 1.14-.251.208-.338.326-.27.41.057.071.249-.067.41-.209.277-.245 1.103-.873 1.512-1.11.278.35.188.996.09 1.136-.053.075-.06.155 0 .192.057.035.12-.054.2-.18.19-.293.114-1.004-.049-1.26.499-.333 1.215-.555 1.648-.66.037.074.563 1.722.663 2.021.054.164.109.36.22.323.075-.024.026-.204-.036-.383-.077-.224-.475-1.608-.597-2.018.143-.083 1.006-.271 1.222-.262-.106.603.292.85.74 1.166.24.168 1.756 1.104 2.074 1.314.18.12.321.197.36.14.044-.065-.079-.2-.246-.306-.133-.084-1.545-.962-2.134-1.362-.423-.286-.65-.593-.549-.996.14-.043.565-.047 1.007-.043 3.009.026 5.422 1.877 5.692 2.174.137.15.327.28.4.219.047-.039-.033-.209-.098-.288"/>
            <g transform="translate(7 12.627)">
                <mask id="C" fill="#fff">
                    <use xlink:href="#B"/>
                </mask>
                <path fill="#000" d="M14.843 2.009c.112-.22.203-.346.107-.403-.088-.051-.172.152-.278.35-.352.655-.736 1.196-1.603 2.043-.96.94-2.065 1.485-2.45 1.625-.327-.987-1.574-5.19-1.607-5.31-.049-.18-.09-.23-.147-.21-.063.025-.024.123.008.28.033.157 1.518 5.131 1.567 5.306-.295.157-1.491.516-2.327.545-.745.026-1.62 0-2.061-.11-.518-.448-1.696-2.232-2.143-3.183C3.383 1.823 3.034.794 2.944.357c-.043-.21-.099-.36-.197-.34-.105.022-.044.187.017.411.158.576.417 1.391.965 2.554.582 1.232 1.62 2.676 1.922 3.07a7.991 7.991 0 0 1-3.196-1.567C1.512 3.73.702 2.77.294 2.07.224 1.95.142 1.78.04 1.85c-.046.033.01.17.081.306.592 1.141 2.036 2.756 3.885 3.642 2.156 1.033 4.506.977 6.608.104 1.839-.764 3.438-2.335 4.228-3.894" mask="url(#C)"/>
            </g>
        </g>
    </g>
</svg>
